<?xml version="1.0"?>
<svg version="1.1" viewBox="0 0 200 60" xmlns:xlink="http://www.w3.org/1999/xlink" xmlns="http://www.w3.org/2000/svg">
<g>
<g>
<g stroke-dasharray="1 1" stroke="#ccc">
</g>
<g stroke="black">
<g fill="none" font-family="Arial, sans-serif" font-size="10" stroke="none" text-anchor="middle" />
<line x1="10.00" x2="200.00" y1="59.98" y2="59.98" />
</g>
<g stroke="black">
<g fill="black" font-family="Arial, sans-serif" font-size="10" stroke="none" text-anchor="middle" />
<line x1="10.00" x2="10.00" y1="60.00" y2="0.00" />
</g>
</g>
<g>
<g stroke-dasharray="1 1" stroke="#ccc">
</g>
<g fill="none" stroke-width="10.555555555555555" stroke="#ffb2b0">
<line x1="16.79" x2="16.79" y1="43.14" y2="59.98" />
<line x1="111.79" x2="111.79" y1="0.02" y2="59.98" />
<line x1="30.36" x2="30.36" y1="33.54" y2="59.98" />
<line x1="71.07" x2="71.07" y1="2.83" y2="59.98" />
<line x1="193.21" x2="193.21" y1="59.94" y2="59.98" />
<line x1="98.21" x2="98.21" y1="1.44" y2="59.98" />
<line x1="57.50" x2="57.50" y1="14.75" y2="59.98" />
<line x1="179.64" x2="179.64" y1="29.31" y2="59.98" />
<line x1="43.93" x2="43.93" y1="21.17" y2="59.98" />
<line x1="166.07" x2="166.07" y1="21.82" y2="59.98" />
<line x1="138.93" x2="138.93" y1="3.07" y2="59.98" />
<line x1="84.64" x2="84.64" y1="3.64" y2="59.98" />
<line x1="152.50" x2="152.50" y1="10.27" y2="59.98" />
<line x1="125.36" x2="125.36" y1="1.04" y2="59.98" />
</g>
<g stroke="black">
<g fill="black" font-family="Arial, sans-serif" font-size="10" stroke="none" text-anchor="middle" />
<line x1="10.00" x2="200.00" y1="59.98" y2="59.98" />
</g>
<g stroke="black">
<g fill="black" font-family="Arial, sans-serif" font-size="10" stroke="none" text-anchor="middle" />
<line x1="10.00" x2="10.00" y1="59.98" y2="0.00" />
</g>
</g>
</g>
</svg>